<?xml version="1.0" encoding="UTF-8"?>
<svg id="Layer_2" data-name="Layer 2" xmlns="http://www.w3.org/2000/svg" xmlns:xlink="http://www.w3.org/1999/xlink" viewBox="0 0 224.45 224.45">
  <defs>
    <style>
      .cls-1 {
        fill: #fff;
      }

      .cls-2 {
        fill: url(#Gradiente_sem_nome_55);
      }

      .cls-3 {
        fill: #8edce7;
      }

      .cls-4 {
        fill: #24555c;
      }
    </style>
    <linearGradient id="Gradiente_sem_nome_55" data-name="Gradiente sem nome 55" x1=".77" y1="1.13" x2="218.82" y2="218.47" gradientUnits="userSpaceOnUse">
      <stop offset="0" stop-color="#78d5e2"/>
      <stop offset="1" stop-color="#4eb9c7"/>
    </linearGradient>
  </defs>
  <g id="_Ícones_de_Produtos" data-name="Ícones de Produtos">
    <g>
      <path class="cls-2" d="M187.04,224.45H37.41c-10.33,0-19.68-4.19-26.45-10.96C4.19,206.72,0,197.37,0,187.04V37.41C0,27.08,4.19,17.73,10.96,10.96,17.73,4.19,27.08,0,37.41,0h149.63c10.33,0,19.68,4.19,26.45,10.96,6.77,6.77,10.96,16.12,10.96,26.45v149.63c0,10.33-4.19,19.68-10.96,26.45-6.77,6.77-16.12,10.96-26.45,10.96Z"/>
      <path class="cls-3" d="M187.04,9.35c7.74,0,14.75,3.15,19.83,8.23s8.23,12.09,8.23,19.83v149.63c0,7.73-3.15,14.75-8.23,19.83-5.08,5.08-12.09,8.23-19.83,8.23H37.41c-7.74,0-14.75-3.15-19.83-8.23-5.08-5.08-8.23-12.09-8.23-19.83V37.41c0-7.73,3.15-14.75,8.23-19.83s12.09-8.23,19.83-8.23h149.63M187.04,0H37.41C27.08,0,17.73,4.19,10.96,10.96,4.19,17.73,0,27.08,0,37.41v149.63c0,10.33,4.19,19.68,10.96,26.45s16.12,10.96,26.45,10.96h149.63c10.33,0,19.68-4.19,26.45-10.96s10.96-16.12,10.96-26.45V37.41c0-10.33-4.19-19.68-10.96-26.45C206.72,4.19,197.37,0,187.04,0h0Z"/>
      <g>
        <path class="cls-4" d="M79.7,46.79h-25.82s-25.82,0-25.82,0c-2.58,0-4.92-1.05-6.61-2.74s-2.74-4.03-2.74-6.61h0c0-2.59,1.05-4.92,2.74-6.62,1.69-1.69,4.03-2.74,6.61-2.74h25.82s25.82,0,25.82,0c2.58,0,4.92,1.05,6.61,2.74,1.69,1.69,2.74,4.03,2.74,6.61h0c0,2.59-1.05,4.92-2.74,6.62-1.69,1.69-4.03,2.74-6.61,2.74Z"/>
        <path class="cls-4" d="M79.7,74.83h-25.82s-25.82,0-25.82,0c-2.58,0-4.92-1.05-6.61-2.74-1.69-1.69-2.74-4.03-2.74-6.61h0c0-2.59,1.05-4.92,2.74-6.62,1.69-1.69,4.03-2.74,6.61-2.74h25.82s25.82,0,25.82,0c2.58,0,4.92,1.05,6.61,2.74,1.69,1.69,2.74,4.03,2.74,6.61h0c0,2.59-1.05,4.92-2.74,6.62-1.69,1.69-4.03,2.74-6.61,2.74Z"/>
        <g>
          <path class="cls-1" d="M198.75,114.42c-2.74-7.1-6.87-17.89-11.14-27.89-4.27-10-8.7-19.23-12.03-23.21-2.3-2.76-6.29-6.41-10.76-10.17-4.47-3.75-9.41-7.61-13.62-10.78-.68-.48-1.49-.76-2.27-.75-.79,0-1.55.3-2.14.96-2.3,2.35-5.2,4.24-8.49,5.56-3.29,1.32-6.98,2.08-10.86,2.18-2.4,5.82-4.74,11.96-6.76,17.72-2.02,5.76-3.7,11.15-4.78,15.47,3.07-1.45,6.59-2.86,10.17-3.3,3.59-.44,7.24.08,10.59,2.5,3.5,2.53,5.7,6.37,6.68,11.95.97,5.58.72,12.91-.69,22.43-1.41,9.56-3.26,16.65-5.73,21.67-2.48,5.02-5.58,7.98-9.51,9.26-3.63,1.18-6.97.64-9.97-.75s-5.66-3.61-7.93-5.78c-.27,5.54-.16,13.04.22,21.18.39,8.14,1.05,16.9,1.88,24.95.08.77.17,1.45.35,2.1s.43,1.25.84,1.89c7.21.52,14.26.72,21.49.37,7.23-.35,14.63-1.27,22.54-2.98,1.01-4.7,1.51-21.11,1.94-36.92.44-15.81.82-31.03,1.61-33.34l2.74,5.01,2.74,5.01c.6,1.07,1.58,1.9,2.69,2.34,1.11.44,2.36.5,3.49.03,3.02-1.06,7.38-2.7,11.83-4.53,4.45-1.83,9-3.84,12.39-5.63,1.17-.59,1.99-1.59,2.43-2.77.43-1.18.47-2.52.06-3.77Z"/>
          <path class="cls-1" d="M100.07,189.24c-.6-5.76-1.77-18.28-2.19-30.84-.42-12.56-.09-25.17,2.34-31.12,1-2.46,2.41-4.03,3.81-5.04,1.4-1.01,2.8-1.45,3.79-1.65,3.02-.6,5.59.19,7.92,1.65s4.43,3.6,6.49,5.69c0,0,.01.01.02.02s.01.01.02.02c1.07,1.09,2.54,1.4,3.83,1.06,1.3-.33,2.42-1.31,2.83-2.79.37-1.36.76-2.97,1.14-4.86s.77-4.08,1.14-6.6c.46-3.14.75-5.8.92-8.05.16-2.24.2-4.08.16-5.56-.04-1.42-.81-2.59-1.89-3.25-1.09-.66-2.48-.8-3.77-.2-.52.24-1.02.49-1.47.72s-.88.44-1.24.62c-2.6,1.31-5.24,2.63-7.87,3.29-2.64.65-5.27.63-7.86-.78-.83-.45-1.96-1.23-2.95-2.49s-1.84-3.01-2.1-5.39c-.57-5.15,1.27-13.47,3.93-22.18,2.66-8.71,6.14-17.81,8.85-24.5-3.06-1.47-5.77-3.37-8.02-5.56-2.25-2.19-4.02-4.68-5.22-7.33-.35-.74-.94-1.31-1.65-1.61s-1.54-.34-2.38-.02c-1.7.4-3.35.82-4.65,1.17s-2.24.65-2.53.79c-1.01.14-7.9,1.6-15.37,3.96-7.47,2.36-15.53,5.63-18.87,9.41-1.37,1.55-3.18,3.67-5.25,6.14-2.07,2.47-4.4,5.29-6.81,8.23-3.48,4.24-7.13,8.72-10.4,12.73-3.27,4.01-6.15,7.57-8.11,9.95-.81.95-1.21,2.11-1.22,3.28s.37,2.34,1.11,3.34c2.02,2.54,5.1,6.19,8.75,9.6,3.65,3.41,7.86,6.58,12.13,8.18.97.33,1.96.43,2.9.26.93-.17,1.81-.61,2.54-1.34,2.64-2.42,5.2-4.44,7.1-5.85,1.9-1.41,3.14-2.22,3.14-2.22,0,0-.52,9.93-2.05,24.19-1.53,14.26-4.07,32.86-8.1,50.2-.26,1.19,4.58,4.09,12.99,7.22,8.41,3.13,20.37,6.49,34.36,8.58-.05-.18-.09-.36-.13-.54s-.07-.37-.09-.56Z"/>
        </g>
        <path class="cls-4" d="M132.05,195.51l-8.67,4.83-8.67,4.83c-1.51.84-3.2.73-4.52,0-1.32-.73-2.26-2.1-2.26-3.78v-19.32c0-1.68.94-3.04,2.26-3.78s3.01-.84,4.52,0l8.67,4.83,8.67,4.83c1.51.84,2.26,2.31,2.26,3.78s-.75,2.94-2.26,3.78Z"/>
        <path class="cls-4" d="M167.77,195.51l-8.67,4.83-8.67,4.83c-1.51.84-3.2.73-4.52,0-1.32-.73-2.26-2.1-2.26-3.78v-19.32c0-1.68.94-3.04,2.26-3.78s3.01-.84,4.52,0l8.67,4.83,8.67,4.83c1.51.84,2.26,2.31,2.26,3.78s-.75,2.94-2.26,3.78Z"/>
        <path class="cls-4" d="M203.49,195.51l-8.67,4.83-8.67,4.83c-1.51.84-3.2.73-4.52,0-1.32-.73-2.26-2.1-2.26-3.78v-19.32c0-1.68.94-3.04,2.26-3.78s3.01-.84,4.52,0l8.67,4.83,8.67,4.83c1.51.84,2.26,2.31,2.26,3.78s-.75,2.94-2.26,3.78Z"/>
      </g>
    </g>
  </g>
</svg>